<mxfile host="app.diagrams.net" modified="2023-11-11T13:05:44.259Z" agent="Mozilla/5.0 (Macintosh; Intel Mac OS X 10_15_7) AppleWebKit/537.36 (KHTML, like Gecko) Chrome/119.0.0.0 Safari/537.36" etag="1xc6Bo0kLHbM4QGl-qt9" version="22.1.0" type="github">
  <diagram name="第 1 页" id="-5W15GyZ_S0E_zpRuecX">
    <mxGraphModel dx="984" dy="630" grid="0" gridSize="10" guides="1" tooltips="1" connect="1" arrows="1" fold="1" page="1" pageScale="1" pageWidth="1169" pageHeight="827" background="#000000" math="0" shadow="0">
      <root>
        <mxCell id="0" />
        <mxCell id="1" parent="0" />
        <mxCell id="SDJh8u2jdrH8w6KMBF2f-9" value="" style="html=1;shadow=0;dashed=0;align=center;verticalAlign=middle;shape=mxgraph.arrows2.arrow;dy=0.6;dx=40;direction=south;notch=0;fillColor=#000000;strokeColor=#FFFFFF;fontSize=16;fontStyle=0;fontFamily=Times New Roman;" parent="1" vertex="1">
          <mxGeometry x="410" y="230" width="20" height="85" as="geometry" />
        </mxCell>
        <mxCell id="SDJh8u2jdrH8w6KMBF2f-33" style="edgeStyle=none;rounded=0;orthogonalLoop=1;jettySize=auto;html=1;entryX=0.5;entryY=1;entryDx=0;entryDy=0;fontColor=#FFFFFF;strokeColor=#FFFFFF;fontSize=16;fontStyle=0;fontFamily=Times New Roman;" parent="1" edge="1">
          <mxGeometry relative="1" as="geometry">
            <mxPoint x="546.2550000000001" y="208.755" as="sourcePoint" />
            <mxPoint x="546.2550000000001" y="208.755" as="targetPoint" />
          </mxGeometry>
        </mxCell>
        <mxCell id="SDJh8u2jdrH8w6KMBF2f-37" value="" style="html=1;shadow=0;dashed=0;align=center;verticalAlign=middle;shape=mxgraph.arrows2.arrow;dy=0.6;dx=40;direction=south;notch=0;labelBackgroundColor=#000000;labelBorderColor=#000000;fillColor=#000000;strokeColor=#FFFFFF;fontSize=16;fontStyle=0;fontFamily=Times New Roman;" parent="1" vertex="1">
          <mxGeometry x="410" y="110" width="20" height="70" as="geometry" />
        </mxCell>
        <mxCell id="SDJh8u2jdrH8w6KMBF2f-39" value="新、旧准则重大变化及影响" style="rounded=0;whiteSpace=wrap;html=1;fontSize=18;fillColor=#000000;strokeColor=#FFFFFF;fontColor=#FFFFFF;fontStyle=0;fontFamily=Times New Roman;" parent="1" vertex="1">
          <mxGeometry x="299" y="313" width="240" height="60" as="geometry" />
        </mxCell>
        <mxCell id="SDJh8u2jdrH8w6KMBF2f-40" value="理论研究综述" style="rounded=0;whiteSpace=wrap;html=1;fontSize=18;fillColor=#000000;strokeColor=#FFFFFF;fontColor=#FFFFFF;fontStyle=0;fontFamily=Times New Roman;" parent="1" vertex="1">
          <mxGeometry x="319" y="180" width="201" height="60" as="geometry" />
        </mxCell>
        <mxCell id="SDJh8u2jdrH8w6KMBF2f-41" value="绪论" style="rounded=0;whiteSpace=wrap;html=1;fontSize=18;fillColor=#000000;strokeColor=#FFFFFF;fontColor=#FFFFFF;fontStyle=0;fontFamily=Times New Roman;" parent="1" vertex="1">
          <mxGeometry x="320" y="50" width="200" height="60" as="geometry" />
        </mxCell>
        <mxCell id="SDJh8u2jdrH8w6KMBF2f-42" value="保险基本概念" style="rounded=0;whiteSpace=wrap;html=1;fontSize=16;fontColor=#FFFFFF;strokeColor=#FFFFFF;fillColor=#000000;fontStyle=0;fontFamily=Times New Roman;" parent="1" vertex="1">
          <mxGeometry x="570" y="140" width="142" height="40" as="geometry" />
        </mxCell>
        <mxCell id="SDJh8u2jdrH8w6KMBF2f-43" value="理论基础" style="rounded=0;whiteSpace=wrap;html=1;fontSize=16;fontColor=#FFFFFF;strokeColor=#FFFFFF;fillColor=#000000;fontStyle=0;fontFamily=Times New Roman;" parent="1" vertex="1">
          <mxGeometry x="570" y="190" width="141" height="40" as="geometry" />
        </mxCell>
        <mxCell id="SDJh8u2jdrH8w6KMBF2f-45" value="" style="strokeWidth=2;html=1;shape=mxgraph.flowchart.annotation_2;align=left;labelPosition=right;pointerEvents=1;strokeColor=#FFFFFF;fontSize=16;fontStyle=0;fontFamily=Times New Roman;" parent="1" vertex="1">
          <mxGeometry x="520" y="160" width="50" height="100" as="geometry" />
        </mxCell>
        <mxCell id="SDJh8u2jdrH8w6KMBF2f-47" value="" style="line;strokeWidth=2;html=1;strokeColor=#FFFFFF;fontColor=#FFFFFF;fontSize=16;fontStyle=0;fontFamily=Times New Roman;" parent="1" vertex="1">
          <mxGeometry x="540" y="205" width="30" height="10" as="geometry" />
        </mxCell>
        <mxCell id="SDJh8u2jdrH8w6KMBF2f-48" value="研究文献综述" style="rounded=0;whiteSpace=wrap;html=1;fontSize=16;fontColor=#FFFFFF;strokeColor=#FFFFFF;fillColor=#000000;fontStyle=0;fontFamily=Times New Roman;" parent="1" vertex="1">
          <mxGeometry x="570" y="240" width="141" height="40" as="geometry" />
        </mxCell>
        <mxCell id="SDJh8u2jdrH8w6KMBF2f-49" value="" style="strokeWidth=2;html=1;shape=mxgraph.flowchart.annotation_2;align=left;labelPosition=right;pointerEvents=1;rotation=-180;strokeColor=#FFFFFF;fontSize=16;fontStyle=0;fontFamily=Times New Roman;" parent="1" vertex="1">
          <mxGeometry x="239" y="270" width="60" height="150" as="geometry" />
        </mxCell>
        <mxCell id="SDJh8u2jdrH8w6KMBF2f-51" value="" style="line;strokeWidth=2;html=1;strokeColor=#FFFFFF;fontSize=16;fontStyle=0;fontFamily=Times New Roman;" parent="1" vertex="1">
          <mxGeometry x="239" y="310" width="30" height="10" as="geometry" />
        </mxCell>
        <mxCell id="SDJh8u2jdrH8w6KMBF2f-52" value="" style="line;strokeWidth=2;html=1;strokeColor=#FFFFFF;fontSize=16;fontStyle=0;fontFamily=Times New Roman;" parent="1" vertex="1">
          <mxGeometry x="239" y="370" width="30" height="10" as="geometry" />
        </mxCell>
        <mxCell id="SDJh8u2jdrH8w6KMBF2f-56" value="保险合同确认" style="rounded=0;whiteSpace=wrap;html=1;fontColor=#FFFFFF;fillColor=#000000;strokeColor=#FFFFFF;fontSize=16;fontStyle=0;fontFamily=Times New Roman;" parent="1" vertex="1">
          <mxGeometry x="93" y="250" width="147" height="40" as="geometry" />
        </mxCell>
        <mxCell id="SDJh8u2jdrH8w6KMBF2f-57" value="混合合同拆分" style="rounded=0;whiteSpace=wrap;html=1;fontColor=#FFFFFF;fillColor=#000000;strokeColor=#FFFFFF;fontSize=16;fontStyle=0;fontFamily=Times New Roman;" parent="1" vertex="1">
          <mxGeometry x="93" y="300" width="147" height="40" as="geometry" />
        </mxCell>
        <mxCell id="SDJh8u2jdrH8w6KMBF2f-58" value="合同负债计量" style="rounded=0;whiteSpace=wrap;html=1;fontColor=#FFFFFF;fillColor=#000000;strokeColor=#FFFFFF;fontSize=16;fontStyle=0;fontFamily=Times New Roman;" parent="1" vertex="1">
          <mxGeometry x="93" y="355" width="147" height="40" as="geometry" />
        </mxCell>
        <mxCell id="SDJh8u2jdrH8w6KMBF2f-59" value="财务报表列报" style="rounded=0;whiteSpace=wrap;html=1;fontColor=#FFFFFF;fillColor=#000000;strokeColor=#FFFFFF;fontSize=16;fontStyle=0;fontFamily=Times New Roman;" parent="1" vertex="1">
          <mxGeometry x="93" y="405" width="147" height="40" as="geometry" />
        </mxCell>
        <mxCell id="SDJh8u2jdrH8w6KMBF2f-62" value="" style="html=1;shadow=0;dashed=0;align=center;verticalAlign=middle;shape=mxgraph.arrows2.arrow;dy=0.6;dx=40;direction=south;notch=0;fillColor=#000000;strokeColor=#FFFFFF;fontSize=16;fontStyle=0;fontFamily=Times New Roman;" parent="1" vertex="1">
          <mxGeometry x="409.5" y="374" width="20" height="96" as="geometry" />
        </mxCell>
        <mxCell id="SDJh8u2jdrH8w6KMBF2f-63" value="新准则对A公司财务影响分析" style="rounded=0;whiteSpace=wrap;html=1;fontSize=18;fontColor=#FFFFFF;strokeColor=#FFFFFF;fillColor=#000000;fontStyle=0;fontFamily=Times New Roman;" parent="1" vertex="1">
          <mxGeometry x="300" y="470" width="240" height="60" as="geometry" />
        </mxCell>
        <mxCell id="SDJh8u2jdrH8w6KMBF2f-64" value="" style="html=1;shadow=0;dashed=0;align=center;verticalAlign=middle;shape=mxgraph.arrows2.arrow;dy=0.6;dx=40;direction=south;notch=0;strokeColor=#FFFFFF;fillColor=#000000;fontSize=16;fontStyle=0;fontFamily=Times New Roman;" parent="1" vertex="1">
          <mxGeometry x="409.5" y="530" width="20" height="81" as="geometry" />
        </mxCell>
        <mxCell id="SDJh8u2jdrH8w6KMBF2f-65" value="研究结论及建议" style="rounded=0;whiteSpace=wrap;html=1;fontSize=18;fillColor=#000000;strokeColor=#FFFFFF;fontColor=#FFFFFF;fontStyle=0;fontFamily=Times New Roman;" parent="1" vertex="1">
          <mxGeometry x="299" y="611" width="240" height="60" as="geometry" />
        </mxCell>
        <mxCell id="SDJh8u2jdrH8w6KMBF2f-66" value="" style="strokeWidth=2;html=1;shape=mxgraph.flowchart.annotation_2;align=left;labelPosition=right;pointerEvents=1;rotation=0;labelBackgroundColor=none;labelBorderColor=#FFFFFF;fillColor=#FFFFFF;strokeColor=#FFFFFF;fontSize=16;fontStyle=0;fontFamily=Times New Roman;" parent="1" vertex="1">
          <mxGeometry x="540" y="440" width="60" height="120" as="geometry" />
        </mxCell>
        <mxCell id="SDJh8u2jdrH8w6KMBF2f-67" value="A公司收入、支出端影响分析" style="rounded=0;whiteSpace=wrap;html=1;fontSize=16;strokeColor=#FFFFFF;fillColor=#000000;fontColor=#FFFFFF;fontStyle=0;fontFamily=Times New Roman;" parent="1" vertex="1">
          <mxGeometry x="596" y="420" width="224" height="40" as="geometry" />
        </mxCell>
        <mxCell id="SDJh8u2jdrH8w6KMBF2f-68" value="" style="strokeWidth=2;html=1;shape=mxgraph.flowchart.annotation_2;align=left;labelPosition=right;pointerEvents=1;rotation=-180;strokeColor=#FFFFFF;fontSize=16;fontStyle=0;fontFamily=Times New Roman;" parent="1" vertex="1">
          <mxGeometry x="239" y="465" width="60" height="70" as="geometry" />
        </mxCell>
        <mxCell id="SDJh8u2jdrH8w6KMBF2f-69" value="保险行业现状研究" style="rounded=0;whiteSpace=wrap;html=1;fontColor=#FFFFFF;fillColor=#000000;strokeColor=#FFFFFF;fontSize=16;fontStyle=0;fontFamily=Times New Roman;" parent="1" vertex="1">
          <mxGeometry x="93" y="460" width="146" height="40" as="geometry" />
        </mxCell>
        <mxCell id="SDJh8u2jdrH8w6KMBF2f-70" value="A公司发展现状" style="rounded=0;whiteSpace=wrap;html=1;fontColor=#FFFFFF;fillColor=#000000;strokeColor=#FFFFFF;fontSize=16;fontStyle=0;fontFamily=Times New Roman;" parent="1" vertex="1">
          <mxGeometry x="93" y="510" width="146" height="40" as="geometry" />
        </mxCell>
        <mxCell id="SDJh8u2jdrH8w6KMBF2f-71" value="A公司资产、负债端影响分析" style="rounded=0;whiteSpace=wrap;html=1;fontSize=16;strokeColor=#FFFFFF;fillColor=#000000;fontColor=#FFFFFF;fontStyle=0;fontFamily=Times New Roman;" parent="1" vertex="1">
          <mxGeometry x="595" y="480" width="225" height="40" as="geometry" />
        </mxCell>
        <mxCell id="SDJh8u2jdrH8w6KMBF2f-72" value="A公司信息披露及其它影响分析" style="rounded=0;whiteSpace=wrap;html=1;fontSize=16;strokeColor=#FFFFFF;fillColor=#000000;fontColor=#FFFFFF;fontStyle=0;fontFamily=Times New Roman;" parent="1" vertex="1">
          <mxGeometry x="595" y="540" width="225" height="40" as="geometry" />
        </mxCell>
        <mxCell id="SDJh8u2jdrH8w6KMBF2f-73" value="" style="line;strokeWidth=2;html=1;strokeColor=#FFFFFF;fontSize=16;fontStyle=0;fontFamily=Times New Roman;" parent="1" vertex="1">
          <mxGeometry x="570" y="495" width="24" height="10" as="geometry" />
        </mxCell>
      </root>
    </mxGraphModel>
  </diagram>
</mxfile>
